# xmcd
# Track frame offsets:
# 150
# 14932
# 28095
# 41232
# 55377
# 68724
# 80772
# 93998
# 106417
# 118722
# 132435
# 145400
# 158145
# 171212
# 183165
# 197388
# 209421
# 222658
# 236163
# 249484
# 262999
# 276967
# 289519
# 302846
#
# Disc length: 4213 seconds
# Revision: 0
# Processed by: cddbd v1.4PL0 Copyright (c) Steve Scherf et al.
# Submitted via: VisiTrax 2.9.5.181 - For more info visit www.synapsa.com
#
DISCID=74107318
DTITLE=T-Bone Walker - T-Bone Shuffle
DYEAR=1998
DGENRE=Blues
TTITLE0=I Got A Break Baby
TTITLE1=Mean Old World
TTITLE2=My Baby Left Me
TTITLE3=Come Back to Me Baby Blues
TTITLE4=She's Goin' To Ruin Me
TTITLE5=Bobby Sox Blues
TTITLE6=I'm Gonna Find My Baby
TTITLE7=I Know Your Wig Is Gone
TTITLE8=T-Bone Jumps Again
TTITLE9=Call It Stormy Monday
TTITLE10=Long Skirt Baby Blues
TTITLE11=Hypin' Woman Blues
TTITLE12=On Your Way Blues
TTITLE13=That's Better For Me
TTITLE14=First Love  Blues
TTITLE15=Lonesome Woman Blues
TTITLE16=Vacation Blues
TTITLE17=T-Bone Shuffle
TTITLE18=Home Town Blues
TTITLE19=Wise Man Blues
TTITLE20=She's The No-Sleepin'est Woman
TTITLE21=I Want A Little Girl
TTITLE22=I'm Still In Love With You
TTITLE23=You're My Best Poker Hand
EXTD=Blue Boar Records, CDBB 1007 - IHL 18
EXTT0=
EXTT1=
EXTT2=
EXTT3=
EXTT4=
EXTT5=
EXTT6=
EXTT7=
EXTT8=
EXTT9=
EXTT10=
EXTT11=
EXTT12=
EXTT13=
EXTT14=
EXTT15=
EXTT16=
EXTT17=
EXTT18=
EXTT19=
EXTT20=
EXTT21=
EXTT22=
EXTT23=
PLAYORDER=
